<?xml version="1.0" encoding="UTF-8"?>
<svg version="1.1" xmlns="http://www.w3.org/2000/svg" width="192" height="192">
<path d="M0 0 C63.36 0 126.72 0 192 0 C192 63.36 192 126.72 192 192 C128.64 192 65.28 192 0 192 C0 128.64 0 65.28 0 0 Z " fill="#E7E7FB" transform="translate(0,0)"/>
<path d="M0 0 C5.20400779 2.43452798 9.73142332 5.55541596 12 11 C12 11.66 12 12.32 12 13 C12.67936615 12.98667633 13.3587323 12.97335266 14.0586853 12.95962524 C21.16441817 12.82632182 28.26979273 12.73615586 35.37646484 12.67041016 C38.02439821 12.64033838 40.6722328 12.59946961 43.31982422 12.54736328 C47.13794397 12.4741312 50.9547407 12.44044496 54.7734375 12.4140625 C55.94675629 12.38309479 57.12007507 12.35212708 58.32894897 12.32022095 C66.23867406 12.31702159 71.8734215 13.82695658 78 19 C80.00628261 21.54430659 81.58956016 24.08727773 83 27 C83.495 27.99 83.495 27.99 84 29 C84.99565309 36.52429266 83.55518637 41.95032991 79 48 C75.18339973 52.19519065 70.74652144 54.70343306 65.0168457 55.15698242 C62.88256013 55.19588673 60.75899416 55.17516623 58.625 55.125 C57.52091797 55.11146484 57.52091797 55.11146484 56.39453125 55.09765625 C54.5962112 55.07430144 52.79806089 55.03843836 51 55 C51.04125 55.94875 51.0825 56.8975 51.125 57.875 C51 61 51 61 49 63 C48.835 64.155 48.67 65.31 48.5 66.5 C48 70 48 70 46 72 C43.5 72.25 43.5 72.25 41 72 C40.01 71.01 40.01 71.01 39 70 C39 68.02 39 66.04 39 64 C33.72 64 28.44 64 23 64 C23 65.98 23 67.96 23 70 C21 72 21 72 18.5 72.25 C16 72 16 72 14 70 C13.66666667 67.66666667 13.33333333 65.33333333 13 63 C12.34 62.34 11.68 61.68 11 61 C10.875 57.875 10.875 57.875 11 55 C8.26655741 55.00602744 5.54436838 55.05352021 2.8125 55.125 C2.04357422 55.12242188 1.27464844 55.11984375 0.48242188 55.1171875 C-3.87036316 55.26310652 -3.87036316 55.26310652 -7.64672852 57.2331543 C-11.08344129 61.0903388 -11.70789679 63.94976377 -11.43359375 68.87890625 C-10.78656435 72.04410413 -9.31896482 73.81744488 -7 76 C-4.48322887 77.25838557 -2.58706712 77.20818973 0.2265625 77.31640625 C1.2578125 77.35830078 2.2890625 77.40019531 3.3515625 77.44335938 C4.43179688 77.48267578 5.51203125 77.52199219 6.625 77.5625 C8.25695312 77.62727539 8.25695312 77.62727539 9.921875 77.69335938 C12.6144517 77.7996453 15.30712253 77.90168057 18 78 C18.33 78.99 18.66 79.98 19 81 C14.95857785 81.11662261 10.91759135 81.1873935 6.875 81.25 C5.73289062 81.28351563 4.59078125 81.31703125 3.4140625 81.3515625 C-7.22738953 81.47530031 -7.22738953 81.47530031 -12 77 C-15.09333444 73.84780719 -15.43194692 71.48972446 -15.4375 67.125 C-15.29903321 61.95767125 -14.66681317 58.86501928 -11 55 C-6.5023383 51.47571285 -2.64417128 51.63411762 2.8125 51.8125 C3.60076172 51.82603516 4.38902344 51.83957031 5.20117188 51.85351562 C7.13441169 51.88866544 9.06729682 51.94246639 11 52 C11 51.01 11 50.02 11 49 C8.29020876 49.08750996 5.58349252 49.19444893 2.875 49.3125 C1.73417969 49.34633789 1.73417969 49.34633789 0.5703125 49.38085938 C-5.48249109 49.66784575 -9.93591924 50.82124808 -14.25 55.375 C-17.56418941 60.34628412 -19.0745817 64.98455813 -18 71 C-15.74218637 76.33929318 -12.46417101 80.7146298 -7 83 C-2.72544756 83.61519278 1.52272534 83.60493653 5.8359375 83.609375 C7.07042633 83.62591125 8.30491516 83.64244751 9.57681274 83.65948486 C13.50959244 83.70796816 17.44198538 83.72933786 21.375 83.75 C24.04563145 83.7759638 26.71614473 83.80808628 29.38671875 83.83984375 C35.92440896 83.91372766 42.46199038 83.96536838 49 84 C49 83.01 49 82.02 49 81 C40.42 81 31.84 81 23 81 C23 80.01 23 79.02 23 78 C31.91 78 40.82 78 50 78 C50.33 76.02 50.66 74.04 51 72 C54.29508019 67.05737971 57.12323784 64.63778617 63 63 C69.61874821 62.54577218 74.32497046 64.03398997 79.37109375 68.3359375 C82.86623399 71.90651242 84.15804563 75.35352052 84.5625 80.25 C84.19234153 89.45769183 76.9546598 96.53695275 71.1484375 103.06640625 C67.9081225 105.98268975 67.9081225 105.98268975 65 106 C63.0703125 104.6640625 63.0703125 104.6640625 61.125 102.625 C60.48820312 101.97789062 59.85140625 101.33078125 59.1953125 100.6640625 C57 98 57 98 55.91448975 95.80473328 C54.50246027 93.11734374 53.18309116 91.12052047 51 89 C46.81550727 87.72658251 42.78884869 87.90500773 38.4453125 88.04296875 C37.22979706 88.04299393 36.01428162 88.0430191 34.76193237 88.04304504 C30.88134266 88.04894316 27.00486238 88.11458111 23.125 88.1875 C19.25298271 88.23397962 15.38177474 88.26739236 11.50949097 88.27839661 C9.10298414 88.28790224 6.69643698 88.31902438 4.29055786 88.37480164 C-3.69901157 88.44249871 -9.06251457 87.45044455 -15.2421875 82.03515625 C-20.05358837 76.22233941 -22.53427199 72.02311174 -22.3046875 64.33203125 C-21.36228799 57.11905037 -17.23008045 52.84151947 -11.8046875 48.34765625 C-8.9100914 46.18610722 -7.20670604 45.87862196 -3.6484375 45.90234375 C-2.79765625 45.90556641 -1.946875 45.90878906 -1.0703125 45.91210938 C-0.18085937 45.92048828 0.70859375 45.92886719 1.625 45.9375 C2.5221875 45.94201172 3.419375 45.94652344 4.34375 45.95117188 C6.56256648 45.96297409 8.78125018 45.97943845 11 46 C10.94779297 44.42798828 10.94779297 44.42798828 10.89453125 42.82421875 C10.86639063 41.44532853 10.83909076 40.06642098 10.8125 38.6875 C10.78736328 37.99720703 10.76222656 37.30691406 10.73632812 36.59570312 C10.66318956 31.5491423 10.66318956 31.5491423 12.04174805 29.30151367 C15.04854798 27.30310319 18.13441892 27.57207331 21.625 27.6015625 C22.36830566 27.59869232 23.11161133 27.59582214 23.87744141 27.59286499 C25.4475989 27.59082524 27.01778186 27.596349 28.58789062 27.60888672 C30.99146332 27.62494297 33.39335461 27.60903648 35.796875 27.58984375 C37.32292038 27.5918262 38.84896471 27.59566991 40.375 27.6015625 C41.09381348 27.59548981 41.81262695 27.58941711 42.55322266 27.5831604 C45.44902156 27.62398365 47.50856454 27.67337708 49.95825195 29.30151367 C51.73480786 32.19804506 51.30710049 35.40308658 51.1875 38.6875 C51.16719727 39.7403418 51.16719727 39.7403418 51.14648438 40.81445312 C51.11120182 42.54329829 51.05739583 44.27174765 51 46 C53.39749384 45.91254425 55.79148221 45.80562925 58.1875 45.6875 C58.86103516 45.66494141 59.53457031 45.64238281 60.22851562 45.61914062 C64.60913504 45.384083 67.51087815 44.68541188 71 42 C73.8199641 37.77005384 73.79231188 33.96779552 73 29 C70.47323961 25.65374976 68.96066458 24.32022153 65 23 C63.26654193 22.9121494 61.52986731 22.88235186 59.79418945 22.88647461 C58.73331619 22.88655014 57.67244293 22.88662567 56.579422 22.88670349 C54.86368233 22.89444542 54.86368233 22.89444542 53.11328125 22.90234375 C51.35506294 22.90446617 51.35506294 22.90446617 49.56132507 22.90663147 C45.81169093 22.91223612 42.06211615 22.92478944 38.3125 22.9375 C35.77278732 22.9425144 33.2330737 22.94707741 30.69335938 22.95117188 C24.46221927 22.96220706 18.23111388 22.97894975 12 23 C11.73912094 23.54052002 11.47824188 24.08104004 11.2094574 24.63793945 C10.8598848 25.35167725 10.51031219 26.06541504 10.15014648 26.80078125 C9.80676743 27.50630127 9.46338837 28.21182129 9.10960388 28.9387207 C7.46866447 31.98704678 5.37418696 34.43541663 3.0625 37 C2.22847656 37.94875 1.39445312 38.8975 0.53515625 39.875 C-2 42 -2 42 -4.6015625 42.4921875 C-9.81355061 41.42262642 -12.85135124 36.68888082 -15.7109375 32.484375 C-19.60939105 26.13274824 -22.90933216 20.66437106 -22 13 C-20.64894513 10.0848393 -19.10629799 7.43262585 -17 5 C-16.01 4.67 -15.02 4.34 -14 4 C-12.97980427 3.0206121 -11.97850195 2.02104551 -11 1 C-7.45238353 -0.77380824 -3.86450164 -0.63509639 0 0 Z " fill="#0F0E0E" transform="translate(65,43)"/>
<path d="M0 0 C5.20400779 2.43452798 9.73142332 5.55541596 12 11 C12 11.66 12 12.32 12 13 C12.67936615 12.98667633 13.3587323 12.97335266 14.0586853 12.95962524 C21.16441817 12.82632182 28.26979273 12.73615586 35.37646484 12.67041016 C38.02439821 12.64033838 40.6722328 12.59946961 43.31982422 12.54736328 C47.13794397 12.4741312 50.9547407 12.44044496 54.7734375 12.4140625 C55.94675629 12.38309479 57.12007507 12.35212708 58.32894897 12.32022095 C66.23867406 12.31702159 71.8734215 13.82695658 78 19 C80.00628261 21.54430659 81.58956016 24.08727773 83 27 C83.495 27.99 83.495 27.99 84 29 C84.99565309 36.52429266 83.55518637 41.95032991 79 48 C75.18339973 52.19519065 70.74652144 54.70343306 65.0168457 55.15698242 C62.88256013 55.19588673 60.75899416 55.17516623 58.625 55.125 C57.52091797 55.11146484 57.52091797 55.11146484 56.39453125 55.09765625 C54.5962112 55.07430144 52.79806089 55.03843836 51 55 C51.04125 55.94875 51.0825 56.8975 51.125 57.875 C51 61 51 61 49 63 C48.835 64.155 48.67 65.31 48.5 66.5 C48 70 48 70 46 72 C43.5 72.25 43.5 72.25 41 72 C40.01 71.01 40.01 71.01 39 70 C39 68.02 39 66.04 39 64 C33.72 64 28.44 64 23 64 C23 65.98 23 67.96 23 70 C21 72 21 72 18.5 72.25 C16 72 16 72 14 70 C13.5 66.5 13.5 66.5 13 63 C12.34 62.34 11.68 61.68 11 61 C11 59.02 11 57.04 11 55 C6.05 55 1.1 55 -4 55 C-4 54.67 -4 54.34 -4 54 C-2.95199219 53.98582031 -1.90398438 53.97164062 -0.82421875 53.95703125 C0.55473142 53.91012818 1.93363633 53.86188079 3.3125 53.8125 C4.34793945 53.80379883 4.34793945 53.80379883 5.40429688 53.79492188 C7.7016326 53.74609542 7.7016326 53.74609542 11 53 C11.40927734 52.17048828 11.81855469 51.34097656 12.24023438 50.48632812 C12.82095703 49.66583984 13.40167969 48.84535156 14 48 C16.78466446 47.54338494 18.95505165 47.41336503 21.73046875 47.51171875 C22.48088943 47.51879349 23.23131012 47.52586823 24.00447083 47.53315735 C26.39983095 47.56113343 28.79284747 47.62386991 31.1875 47.6875 C32.81181518 47.71257908 34.43616703 47.73539294 36.06054688 47.75585938 C40.04126671 47.81096957 44.02023615 47.89725767 48 48 C48.495 49.98 48.495 49.98 49 52 C49.66 52 50.32 52 51 52 C51 51.01 51 50.02 51 49 C51.92941406 48.96261719 52.85882813 48.92523438 53.81640625 48.88671875 C65.23355432 48.52595784 65.23355432 48.52595784 74.4375 42.5 C76.62680682 37.59595273 76.78317875 33.28847507 76 28 C73.9069385 23.98132193 71.3769265 22.34348697 67.22424316 20.63317871 C62.53976647 19.29964155 57.66518512 19.49450029 52.828125 19.453125 C51.66875427 19.43280212 50.50938354 19.41247925 49.31488037 19.39154053 C46.87424686 19.35145736 44.4334919 19.31824816 41.99267578 19.29150391 C38.24863302 19.24998484 34.50539756 19.1873579 30.76171875 19.12109375 C28.38803935 19.08470862 26.01434139 19.049511 23.640625 19.015625 C22.51875793 18.9980011 21.39689087 18.9803772 20.24102783 18.96221924 C19.20274841 18.95180603 18.16446899 18.94139282 17.09472656 18.93066406 C16.18096252 18.91972717 15.26719849 18.90879028 14.32574463 18.89752197 C11.84155393 18.900504 11.84155393 18.900504 9 20 C8.91492188 20.70898438 8.82984375 21.41796875 8.7421875 22.1484375 C7.83485223 25.63451512 6.28528162 27.75253763 4.125 30.625 C3.07699219 32.03652344 3.07699219 32.03652344 2.0078125 33.4765625 C0.42184418 35.4698223 -1.14600877 37.26261199 -3 39 C-7.37738853 37.63254355 -9.39676936 35.78792038 -12.1875 32.1875 C-13.19876953 30.90939453 -13.19876953 30.90939453 -14.23046875 29.60546875 C-18.30215571 23.6102917 -18.7345517 18.10066646 -18 11 C-16.5 7.8125 -16.5 7.8125 -15 6 C-15.66 5.67 -16.32 5.34 -17 5 C-16.01 4.67 -15.02 4.34 -14 4 C-12.97980427 3.0206121 -11.97850195 2.02104551 -11 1 C-7.45238353 -0.77380824 -3.86450164 -0.63509639 0 0 Z " fill="#161617" transform="translate(65,43)"/>
<path d="M0 0 C0.33 0.66 0.66 1.32 1 2 C1.95261719 1.95359375 2.90523437 1.9071875 3.88671875 1.859375 C5.14097656 1.82328125 6.39523438 1.7871875 7.6875 1.75 C8.92886719 1.70359375 10.17023437 1.6571875 11.44921875 1.609375 C15.58504599 2.0643615 17.07855005 3.11559742 20 6 C22.20179827 8.8091909 22.94550368 10.65258594 23.5 14.1875 C22.25847811 23.65410444 16.47300258 30.35031497 10 37 C5.62261147 35.63254355 3.60323064 33.78792038 0.8125 30.1875 C-0.19876953 28.90939453 -0.19876953 28.90939453 -1.23046875 27.60546875 C-5.30215571 21.6102917 -5.7345517 16.10066646 -5 9 C-3.5 5.8125 -3.5 5.8125 -2 4 C-2.66 3.67 -3.32 3.34 -4 3 C-3.01 2.67 -2.02 2.34 -1 2 C-0.67 1.34 -0.34 0.68 0 0 Z " fill="#CD7576" transform="translate(52,45)"/>
<path d="M0 0 C3.4764876 2.02235043 6.19044715 4.38089431 8 8 C8.97862105 15.24675079 8.15569573 20.07550921 3.734375 25.91796875 C2.87585938 26.94857422 2.87585938 26.94857422 2 28 C1.42765625 28.69738281 0.8553125 29.39476562 0.265625 30.11328125 C-1.12671026 31.76750814 -2.55926604 33.3877501 -4 35 C-10.1473703 34.03148652 -13.1327823 28.54745104 -16.59765625 23.8203125 C-19.66599294 19.01695535 -20.85519222 15.06144973 -19.88671875 9.375 C-16.65115431 0.70881859 -8.5750288 -2.07686433 0 0 Z " fill="#CD7474" transform="translate(137,110)"/>
<path d="M0 0 C4.89124058 3.4166754 7.93993774 6.79703157 9.06640625 12.82421875 C9.7405753 20.98596747 5.32430907 26.50883329 0.42578125 32.6171875 C-5.364216 39.33549836 -5.364216 39.33549836 -8.34375 40.78515625 C-10.3125 40.796875 -10.3125 40.796875 -12.2421875 39.4609375 C-12.88414063 38.78804687 -13.52609375 38.11515625 -14.1875 37.421875 C-14.82429688 36.77476562 -15.46109375 36.12765625 -16.1171875 35.4609375 C-18.3125 32.796875 -18.3125 32.796875 -19.39183044 30.60531616 C-20.80379063 27.9110515 -22.12266876 25.91951044 -24.3125 23.796875 C-28.54867255 22.49169022 -32.63910436 22.6313383 -37.04296875 22.734375 C-38.88402946 22.72374023 -38.88402946 22.72374023 -40.76228333 22.71289062 C-44.67617523 22.69894596 -48.58645862 22.7463839 -52.5 22.796875 C-56.42333566 22.80503711 -60.34651486 22.80091163 -64.26985168 22.79516602 C-66.7094063 22.79628959 -69.14898401 22.80818205 -71.58842468 22.83178711 C-72.68999405 22.84089111 -73.79156342 22.84999512 -74.92651367 22.859375 C-76.38162605 22.87677734 -76.38162605 22.87677734 -77.86613464 22.89453125 C-80.3125 22.796875 -80.3125 22.796875 -83.3125 21.796875 C-83.3125 20.806875 -83.3125 19.816875 -83.3125 18.796875 C-64.5025 18.796875 -45.6925 18.796875 -26.3125 18.796875 C-26.3125 17.806875 -26.3125 16.816875 -26.3125 15.796875 C-34.8925 15.796875 -43.4725 15.796875 -52.3125 15.796875 C-52.3125 14.806875 -52.3125 13.816875 -52.3125 12.796875 C-43.4025 12.796875 -34.4925 12.796875 -25.3125 12.796875 C-24.9825 10.816875 -24.6525 8.836875 -24.3125 6.796875 C-18.61252654 -1.75308519 -9.43936591 -4.91102145 0 0 Z M-20.828125 6.61328125 C-23.52643635 10.58263927 -24.08717883 14.08541918 -23.3125 18.796875 C-20.47076143 25.75387203 -15.42073167 31.3863811 -10.3125 36.796875 C-7.19030873 36.49035851 -6.25338539 35.7358437 -4.0234375 33.43359375 C-3.25257813 32.46035156 -2.48171875 31.48710937 -1.6875 30.484375 C-0.91148437 29.51886719 -0.13546875 28.55335938 0.6640625 27.55859375 C4.41589378 22.43785106 5.23328134 18.90424113 5.1484375 12.56640625 C4.41647489 8.16842749 2.06186891 5.5767955 -1.3125 2.796875 C-8.19953155 -0.64664077 -15.67471557 1.3214538 -20.828125 6.61328125 Z " fill="#231C1E" transform="translate(140.3125,108.203125)"/>
<path d="M0 0 C1.0374939 0.00303635 1.0374939 0.00303635 2.09594727 0.00613403 C2.80243408 0.00517731 3.5089209 0.00422058 4.23681641 0.00323486 C5.7331552 0.00255321 7.22949694 0.00440649 8.72583008 0.00857544 C11.02374884 0.01392396 13.32147213 0.00863003 15.61938477 0.00222778 C17.06990603 0.00288857 18.52042718 0.00416974 19.97094727 0.00613403 C20.66260986 0.0041098 21.35427246 0.00208557 22.06689453 0 C26.91849503 0.0239943 26.91849503 0.0239943 28.03344727 1.13894653 C28.03344727 5.75894653 28.03344727 10.37894653 28.03344727 15.13894653 C16.81344727 15.13894653 5.59344727 15.13894653 -5.96655273 15.13894653 C-5.96655273 0.02950845 -5.96655273 0.02950845 0 0 Z " fill="#DAE7F8" transform="translate(84.966552734375,73.86105346679688)"/>
<path d="M0 0 C11.22 0 22.44 0 34 0 C34 3.96 34 7.92 34 12 C32.32326351 13.67673649 30.27144924 13.12787817 28.03344727 13.13894653 C27.34178467 13.1369223 26.65012207 13.13489807 25.9375 13.1328125 C25.23101318 13.13376923 24.52452637 13.13472595 23.79663086 13.13571167 C22.30029207 13.13639333 20.80395033 13.13454005 19.30761719 13.13037109 C17.00969843 13.12502257 14.71197514 13.13031651 12.4140625 13.13671875 C10.96354123 13.13605797 9.51302009 13.1347768 8.0625 13.1328125 C7.0250061 13.13584885 7.0250061 13.13584885 5.96655273 13.13894653 C1.11495224 13.11495224 1.11495224 13.11495224 0 12 C0 8.04 0 4.08 0 0 Z " fill="#AAD997" transform="translate(79,91)"/>
<path d="M0 0 C7.82852116 -0.1525351 15.65665703 -0.25737817 23.48632812 -0.32958984 C26.14849728 -0.35630869 28.8087174 -0.40058855 31.47070312 -0.45263672 C35.30363367 -0.52568584 39.13524868 -0.55951361 42.96875 -0.5859375 C44.74421204 -0.63238907 44.74421204 -0.63238907 46.55554199 -0.67977905 C53.22870275 -0.68247787 57.33991329 -0.02803259 62.46398926 4.39071655 C66.44566865 8.562335 68.21549495 12.12738975 68.5625 17.9375 C68.31863983 23.27803769 66.6336373 27.08615683 63 31 C60.71892707 32.68877717 58.59299925 33.77688715 56 35 C55.01 35.495 55.01 35.495 54 36 C51.28239892 36.07181821 48.59140612 36.09299506 45.875 36.0625 C44.74384766 36.05573242 44.74384766 36.05573242 43.58984375 36.04882812 C41.72652873 36.03703499 39.86325445 36.01909942 38 36 C38 35.01 38 34.02 38 33 C38.92941406 32.96261719 39.85882813 32.92523438 40.81640625 32.88671875 C52.23355432 32.52595784 52.23355432 32.52595784 61.4375 26.5 C63.62680682 21.59595273 63.78317875 17.28847507 63 12 C60.9053776 7.97832498 58.37302939 6.34280416 54.21749878 4.63095093 C49.57005067 3.30859994 44.73960138 3.51612097 39.94140625 3.48828125 C38.79711655 3.47033005 37.65282684 3.45237885 36.47386169 3.43388367 C32.83677805 3.37991547 29.19982466 3.34592731 25.5625 3.3125 C23.08917464 3.27931513 20.61586643 3.24482439 18.14257812 3.20898438 C12.0951689 3.12419661 6.04774254 3.05578966 0 3 C0 2.01 0 1.02 0 0 Z " fill="#B0AEB1" transform="translate(78,59)"/>
<path d="M0 0 C1.13598633 0.00483398 1.13598633 0.00483398 2.29492188 0.00976562 C3.47344727 0.02233398 3.47344727 0.02233398 4.67578125 0.03515625 C5.47306641 0.03966797 6.27035156 0.04417969 7.09179688 0.04882812 C9.05732382 0.06059775 11.0228121 0.07853277 12.98828125 0.09765625 C12.98828125 1.08765625 12.98828125 2.07765625 12.98828125 3.09765625 C11.83070312 3.1234375 10.673125 3.14921875 9.48046875 3.17578125 C7.94136997 3.23208974 6.40230892 3.28943645 4.86328125 3.34765625 C3.72246094 3.36892578 3.72246094 3.36892578 2.55859375 3.390625 C-2.68982242 3.61684983 -5.89086081 4.5654923 -10.01171875 8.09765625 C-13.2988011 12.66727073 -12.61267562 18.74034564 -12.01171875 24.09765625 C-9.92127776 27.83058659 -7.9116383 29.50534596 -4.01171875 31.09765625 C-1.20854039 31.46214454 -1.20854039 31.46214454 1.84765625 31.51171875 C3.52021484 31.56972656 3.52021484 31.56972656 5.2265625 31.62890625 C6.38542969 31.65984375 7.54429688 31.69078125 8.73828125 31.72265625 C10.49978516 31.78066406 10.49978516 31.78066406 12.296875 31.83984375 C15.19385393 31.93405445 18.09082751 32.01967227 20.98828125 32.09765625 C21.31828125 31.43765625 21.64828125 30.77765625 21.98828125 30.09765625 C22.97828125 30.09765625 23.96828125 30.09765625 24.98828125 30.09765625 C24.98828125 30.75765625 24.98828125 31.41765625 24.98828125 32.09765625 C33.56828125 32.09765625 42.14828125 32.09765625 50.98828125 32.09765625 C50.98828125 33.08765625 50.98828125 34.07765625 50.98828125 35.09765625 C43.12299637 35.19916459 35.25788075 35.26916784 27.39208984 35.31738281 C24.7166475 35.3352245 22.04206109 35.36476674 19.36669922 35.39941406 C15.51909554 35.44799131 11.67207338 35.4706399 7.82421875 35.48828125 C6.63025482 35.50892639 5.43629089 35.52957153 4.20614624 35.55084229 C-2.17348424 35.55256212 -6.20787853 35.47718567 -11.01171875 31.09765625 C-15.30330788 26.32922389 -17.5204341 22.83547767 -17.32421875 16.25 C-16.55010424 10.91828629 -13.98809219 6.6652135 -9.94921875 3.16015625 C-6.48679405 0.7290921 -4.13073573 -0.03105816 0 0 Z " fill="#BDBBBE" transform="translate(63.01171875,91.90234375)"/>
<path d="M0 0 C4.10007872 0.38679988 6.11398775 1.78344381 9.3125 4.3125 C10.84464888 7.37679776 10.54188548 9.9290642 10.3125 13.3125 C9.05610091 16.13939795 7.98698232 17.78254961 5.5625 19.6875 C2.12417782 20.64258949 -0.25147688 20.21671661 -3.6875 19.3125 C-6.55580829 17.29858141 -8.30342935 15.85815017 -9.16796875 12.37890625 C-9.460837 8.19168185 -9.00950148 6.70055306 -6.25 3.375 C-5.404375 2.694375 -4.55875 2.01375 -3.6875 1.3125 C-2.6875 0.3125 -2.6875 0.3125 0 0 Z " fill="#1E1616" transform="translate(130.6875,113.6875)"/>
<path d="M0 0 C2.75329021 1.79562405 4.52627461 3.05254922 6 6 C6.68288206 12.94263424 6.68288206 12.94263424 4.0625 17 C-0.01080308 19.6601163 -3.25519889 19.98443537 -8 19 C-10.50160818 17.12379387 -11.61945652 15.76108697 -13 13 C-13.34556568 9.98864195 -13.57794337 7.90638829 -13 5 C-9.06923744 0.39813164 -5.99319358 -0.9807044 0 0 Z " fill="#130E0E" transform="translate(64,51)"/>
<path d="M0 0 C0.33 0 0.66 0 1 0 C1.495 4.455 1.495 4.455 2 9 C-0.59601818 10.29800909 -2.41452762 10.08783996 -5.32006836 10.03759766 C-6.43139633 10.02072906 -7.5427243 10.00386047 -8.68772888 9.98648071 C-10.49552574 9.9506337 -10.49552574 9.9506337 -12.33984375 9.9140625 C-14.18939415 9.88220352 -14.18939415 9.88220352 -16.0763092 9.84970093 C-19.35827375 9.79148904 -22.64009811 9.72826454 -25.92193604 9.66339111 C-27.9338383 9.62506975 -29.94576727 9.59060274 -31.95776367 9.55761719 C-35.81440172 9.49405535 -39.67086169 9.42391983 -43.52734375 9.3515625 C-45.33210426 9.32178818 -45.33210426 9.32178818 -47.17332458 9.29141235 C-48.84504478 9.25665298 -48.84504478 9.25665298 -50.55053711 9.22119141 C-51.53267685 9.20263092 -52.51481659 9.18407043 -53.52671814 9.16494751 C-56 9 -56 9 -59 8 C-59 7.01 -59 6.02 -59 5 C-40.19 5 -21.38 5 -2 5 C-2 4.34 -2 3.68 -2 3 C-1.34 3 -0.68 3 0 3 C0 2.01 0 1.02 0 0 Z " fill="#2D2C2F" transform="translate(116,122)"/>
<path d="M0 0 C0.66 0.33 1.32 0.66 2 1 C0.38731308 3.71224618 -1.24901874 6.37352812 -3 9 C-3.73965025 13.59271203 -3.60961194 17.02462089 -1.125 21 C2.06146224 23.99902329 3.94526173 24.15174084 8.2265625 24.31640625 C9.2578125 24.35830078 10.2890625 24.40019531 11.3515625 24.44335938 C12.43179688 24.48267578 13.51203125 24.52199219 14.625 24.5625 C16.25695312 24.62727539 16.25695312 24.62727539 17.921875 24.69335938 C20.6144517 24.7996453 23.30712253 24.90168057 26 25 C26.495 26.485 26.495 26.485 27 28 C22.95857785 28.11662261 18.91759135 28.1873935 14.875 28.25 C13.73289062 28.28351563 12.59078125 28.31703125 11.4140625 28.3515625 C0.77261047 28.47530031 0.77261047 28.47530031 -4 24 C-7.09333444 20.84780719 -7.43194692 18.48972446 -7.4375 14.125 C-7.30589798 8.72931709 -6.64699436 5.95959387 -3 2 C-2.01 1.34 -1.02 0.68 0 0 Z " fill="#19191B" transform="translate(57,96)"/>
<path d="M0 0 C1.1149585 -0.00430527 1.1149585 -0.00430527 2.25244141 -0.00869751 C3.8225989 -0.01073726 5.39278186 -0.0052135 6.96289062 0.00732422 C9.36646332 0.02338047 11.76835461 0.00747398 14.171875 -0.01171875 C15.69792038 -0.0097363 17.22396471 -0.00589259 18.75 0 C19.46881348 -0.00607269 20.18762695 -0.01214539 20.92822266 -0.0184021 C23.82402156 0.02242115 25.88356454 0.07181458 28.33325195 1.69995117 C30.10980786 4.59648256 29.68210049 7.80152408 29.5625 11.0859375 C29.54219727 12.1387793 29.54219727 12.1387793 29.52148438 13.21289062 C29.48620182 14.94173579 29.43239583 16.67018515 29.375 18.3984375 C28.385 18.0684375 27.395 17.7384375 26.375 17.3984375 C26.045 13.1084375 25.715 8.8184375 25.375 4.3984375 C14.815 4.3984375 4.255 4.3984375 -6.625 4.3984375 C-6.955 8.6884375 -7.285 12.9784375 -7.625 17.3984375 C-8.615 17.7284375 -9.605 18.0584375 -10.625 18.3984375 C-10.7059723 15.96027165 -10.76546972 13.52479366 -10.8125 11.0859375 C-10.83763672 10.39564453 -10.86277344 9.70535156 -10.88867188 8.99414062 C-10.96181044 3.9475798 -10.96181044 3.9475798 -9.58325195 1.69995117 C-6.57645202 -0.29845931 -3.49058108 -0.02948919 0 0 Z " fill="#161719" transform="translate(86.625,70.6015625)"/>
<path d="M0 0 C0.80566406 0.00322266 1.61132812 0.00644531 2.44140625 0.00976562 C3.70404297 0.02233398 3.70404297 0.02233398 4.9921875 0.03515625 C6.26642578 0.04192383 6.26642578 0.04192383 7.56640625 0.04882812 C9.66669659 0.06062751 11.7669508 0.07856319 13.8671875 0.09765625 C13.8671875 0.42765625 13.8671875 0.75765625 13.8671875 1.09765625 C5.9471875 1.59265625 5.9471875 1.59265625 -2.1328125 2.09765625 C-2.1328125 2.75765625 -2.1328125 3.41765625 -2.1328125 4.09765625 C-3.0403125 4.48953125 -3.9478125 4.88140625 -4.8828125 5.28515625 C-9.0904759 7.63173776 -11.11638919 10.21727313 -13.3828125 14.41015625 C-14.65427164 18.96621817 -15.07341639 22.8733097 -13.22265625 27.25 C-10.55488932 31.85640141 -7.76052435 34.51474731 -3.1328125 37.09765625 C-3.4628125 38.08765625 -3.7928125 39.07765625 -4.1328125 40.09765625 C-9.77267672 38.73041644 -12.78367569 34.53439934 -16.1328125 30.09765625 C-18.7052758 25.73565326 -18.778281 21.03797281 -18.1328125 16.09765625 C-16.16548732 9.36143521 -11.63242759 5.20451167 -6.1328125 1.09765625 C-3.8362755 -0.05061225 -2.54968083 -0.0179555 0 0 Z " fill="#141415" transform="translate(61.1328125,88.90234375)"/>
<path d="M0 0 C4.26290179 0.47365575 6.21548958 2.92238322 9 6 C11.56377118 9.84565677 11.5099662 11.41030416 11 16 C8.29313295 23.61699798 3.57627198 29.27152209 -2 35 C-3.32 34.34 -4.64 33.68 -6 33 C-5.236875 32.2575 -4.47375 31.515 -3.6875 30.75 C0.74541806 26.57527648 0.74541806 26.57527648 2 21 C2.495 20.608125 2.99 20.21625 3.5 19.8125 C5.52872391 17.36112528 5.41100758 15.22760571 5.296875 12.12890625 C4.65488865 7.52518837 2.56413957 3.84620935 0 0 Z " fill="#BB5858" transform="translate(64,47)"/>
<path d="M0 0 C3.7248672 0.10955492 5.74629467 1.32098567 8.3125 3.875 C11.43430661 7.83199124 11.87127954 11.26704606 11.5859375 16.2265625 C10.57710893 21.0016844 8.07926558 24.30349425 5 28 C4.42765625 28.69738281 3.8553125 29.39476562 3.265625 30.11328125 C1.87328974 31.76750814 0.44073396 33.3877501 -1 35 C-2.32 34.67 -3.64 34.34 -5 34 C-4.59007812 33.52949219 -4.18015625 33.05898437 -3.7578125 32.57421875 C-3.21898437 31.95160156 -2.68015625 31.32898438 -2.125 30.6875 C-1.32449219 29.76517578 -1.32449219 29.76517578 -0.5078125 28.82421875 C1.1640447 26.86501788 1.1640447 26.86501788 3 24 C2.67 23.34 2.34 22.68 2 22 C2.7115625 21.319375 2.7115625 21.319375 3.4375 20.625 C5.75800442 18.2116754 5.99036909 17.10208762 6.3125 13.6875 C5.95102574 9.42210371 4.825848 8.09077125 2 5 C2 4.34 2 3.68 2 3 C1.34 2.01 0.68 1.02 0 0 Z " fill="#C15C5C" transform="translate(134,110)"/>
<path d="M0 0 C0.72265625 1.6640625 0.72265625 1.6640625 1 4 C-2.49493745 10.27005038 -7.4340565 16.44604623 -13 21 C-18.68041711 20.52379737 -22.11309363 15.17755453 -25.59765625 11.15625 C-27.81813975 8.33580299 -29.04582072 6.717858 -28.8125 3.0625 C-28.544375 2.381875 -28.27625 1.70125 -28 1 C-26.06123191 3.40407244 -24.14046341 5.80804421 -22.31640625 8.30078125 C-21.71699219 9.10902344 -21.11757812 9.91726562 -20.5 10.75 C-19.9328125 11.52859375 -19.365625 12.3071875 -18.78125 13.109375 C-16.83927583 15.1705932 -15.76415253 15.63629572 -13 16 C-11.5369343 14.25395451 -10.0797192 12.50300547 -8.625 10.75 C-7.81289062 9.77546875 -7.00078125 8.8009375 -6.1640625 7.796875 C-4.40982507 5.52966561 -3.24617011 3.53892603 -2 1 C-1.34 0.67 -0.68 0.34 0 0 Z " fill="#140E0F" transform="translate(146,128)"/>
<path d="M0 0 C1.32 0 2.64 0 4 0 C4 0.66 4 1.32 4 2 C12.58 2 21.16 2 30 2 C30 2.99 30 3.98 30 5 C13.17 5 -3.66 5 -21 5 C-21 4.34 -21 3.68 -21 3 C-11.1 2.505 -11.1 2.505 -1 2 C-0.67 1.34 -0.34 0.68 0 0 Z " fill="#D7D4D8" transform="translate(84,122)"/>
<path d="M0 0 C2.5 0.5 2.5 0.5 4.875 2.0625 C6.5 4.5 6.5 4.5 6.375 8.125 C5.5 11.5 5.5 11.5 3.5 13.5 C0.0625 13.875 0.0625 13.875 -3.5 13.5 C-5.88460953 11.42308202 -6.3959746 10.09443084 -6.9375 7 C-6.20847934 2.83416768 -4.12966477 0.82593295 0 0 Z " fill="#F3F3F3" transform="translate(60.5,53.5)"/>
<path d="M0 0 C2.5 0.5 2.5 0.5 4.875 2.0625 C6.5 4.5 6.5 4.5 6.375 8.125 C5.5 11.5 5.5 11.5 3.5 13.5 C0.0625 13.875 0.0625 13.875 -3.5 13.5 C-5.88460953 11.42308202 -6.3959746 10.09443084 -6.9375 7 C-6.20847934 2.83416768 -4.12966477 0.82593295 0 0 Z " fill="#F3F3F3" transform="translate(131.5,116.5)"/>
<path d="M0 0 C11.22 0 22.44 0 34 0 C34 3.96 34 7.92 34 12 C33 13 33 13 29.94897461 13.11352539 C28.60008729 13.11336634 27.25119386 13.10767612 25.90234375 13.09765625 C24.83905602 13.09553383 24.83905602 13.09553383 23.75428772 13.09336853 C21.48198288 13.08775443 19.20977525 13.07519963 16.9375 13.0625 C15.40039204 13.05748681 13.86328255 13.05292359 12.32617188 13.04882812 C8.55074358 13.03778042 4.77538829 13.02050641 1 13 C1 12.67 1 12.34 1 12 C10.24 12 19.48 12 29 12 C29 11.01 29 10.02 29 9 C28.01 8.67 27.02 8.34 26 8 C26.33 7.01 26.66 6.02 27 5 C27.66 5 28.32 5 29 5 C29 3.68 29 2.36 29 1 C19.43 1 9.86 1 0 1 C0 0.67 0 0.34 0 0 Z " fill="#76A176" transform="translate(79,91)"/>
<path d="M0 0 C4.53897705 -0.02465392 9.07791543 -0.04283789 13.61694336 -0.05493164 C15.16219766 -0.0599714 16.70744716 -0.0668032 18.25268555 -0.07543945 C20.46925029 -0.08752076 22.68575218 -0.09323173 24.90234375 -0.09765625 C25.5971434 -0.10281754 26.29194305 -0.10797882 27.00779724 -0.11329651 C28.6722933 -0.11349277 30.33665499 -0.06189129 32 0 C35.54338194 3.54338194 33 9.98890121 33 15 C21.78 15 10.56 15 -1 15 C-1 14.67 -1 14.34 -1 14 C8.57 14 18.14 14 28 14 C28 9.71 28 5.42 28 1 C18.76 1 9.52 1 0 1 C0 0.67 0 0.34 0 0 Z " fill="#9DABBE" transform="translate(80,74)"/>
<path d="M0 0 C0.33 0 0.66 0 1 0 C1.58730647 6.36901242 1.32817513 10.99390232 -2.4296875 16.30859375 C-4.97188323 19.04682945 -7.62729184 20.40909993 -11 22 C-11.66 22.33 -12.32 22.66 -13 23 C-15.71760108 23.07181821 -18.40859388 23.09299506 -21.125 23.0625 C-21.87910156 23.05798828 -22.63320312 23.05347656 -23.41015625 23.04882812 C-25.27347127 23.03703499 -27.13674555 23.01909942 -29 23 C-29 22.01 -29 21.02 -29 20 C-28.07058594 19.96261719 -27.14117187 19.92523438 -26.18359375 19.88671875 C-16.63156481 19.55563473 -16.63156481 19.55563473 -8 16 C-4.02207045 11.49865867 -3.39908864 7.78678534 -3 2 C-2.67 2 -2.34 2 -2 2 C-1.67 4.31 -1.34 6.62 -1 9 C-0.67 6.03 -0.34 3.06 0 0 Z " fill="#B2AFB2" transform="translate(145,72)"/>
<path d="M0 0 C18.15 0 36.3 0 55 0 C55 0.99 55 1.98 55 3 C36.85 2.67 18.7 2.34 0 2 C0 1.34 0 0.68 0 0 Z " fill="#E0DDE1" transform="translate(78,60)"/>
<path d="M0 0 C0.33 0 0.66 0 1 0 C1.01417969 0.75925781 1.02835938 1.51851563 1.04296875 2.30078125 C1.18588894 5.27892893 1.38230155 8.0811573 2 11 C4.47933197 12.77148372 4.47933197 12.77148372 7 14 C7.25 17.5625 7.25 17.5625 7 21 C7.33 21.66 7.66 22.32 8 23 C5.625 23.125 5.625 23.125 3 23 C0.24433749 20.24433749 0.54065767 17.78460367 0 14 C-0.66 13.34 -1.32 12.68 -2 12 C-2 10.02 -2 8.04 -2 6 C-6.95 6 -11.9 6 -17 6 C-17 5.67 -17 5.34 -17 5 C-15.41058594 4.96132812 -15.41058594 4.96132812 -13.7890625 4.921875 C-12.40099999 4.8656022 -11.01298075 4.80825467 -9.625 4.75 C-8.92632812 4.73582031 -8.22765625 4.72164063 -7.5078125 4.70703125 C-5.22282354 4.63964218 -5.22282354 4.63964218 -2 4 C-0.43516506 2.08611659 -0.43516506 2.08611659 0 0 Z " fill="#1F1F20" transform="translate(78,92)"/>
<path d="M0 0 C0.33 0 0.66 0 1 0 C1.09796875 0.66386719 1.1959375 1.32773438 1.296875 2.01171875 C2.19676613 7.32573102 2.92888813 11.1683653 7 15 C10.23786177 16.99901998 12.86529594 17.29357327 16.640625 17.4140625 C18.24550781 17.47207031 18.24550781 17.47207031 19.8828125 17.53125 C21.54957031 17.57765625 21.54957031 17.57765625 23.25 17.625 C24.37664062 17.66367188 25.50328125 17.70234375 26.6640625 17.7421875 C29.44254548 17.83637336 32.22102334 17.92199586 35 18 C35 18.33 35 18.66 35 19 C28.4 19 21.8 19 15 19 C15 19.66 15 20.32 15 21 C9.39204896 20.77110404 6.65520215 19.3841502 2.48046875 15.66796875 C-0.44234339 12.37498515 -1.26699583 9.68477092 -1.1875 5.3125 C-1.18105469 4.52488281 -1.17460938 3.73726563 -1.16796875 2.92578125 C-1 1 -1 1 0 0 Z " fill="#C8C6C9" transform="translate(48,106)"/>
<path d="M0 0 C0.93423645 3.01031744 1.04449911 3.86650268 0 7 C-13.86 6.505 -13.86 6.505 -28 6 C-28 5.01 -28 4.02 -28 3 C-19.09 3 -10.18 3 -1 3 C-0.67 2.01 -0.34 1.02 0 0 Z " fill="#151517" transform="translate(116,118)"/>
<path d="M0 0 C9.24 0 18.48 0 28 0 C27.01 0.66 26.02 1.32 25 2 C24.27034634 4.56282742 24.27034634 4.56282742 24 7 C23.67 7 23.34 7 23 7 C23 5.35 23 3.7 23 2 C17.39 2 11.78 2 6 2 C6 3.98 6 5.96 6 8 C4.68 8.33 3.36 8.66 2 9 C2.33 6.36 2.66 3.72 3 1 C2.01 0.67 1.02 0.34 0 0 Z " fill="#09090A" transform="translate(82,105)"/>
<path d="M0 0 C2.9375 1.875 2.9375 1.875 5 4 C5 4.66 5 5.32 5 6 C4.01 6.33 3.02 6.66 2 7 C2 6.34 2 5.68 2 5 C-3.47220467 3.75722018 -3.47220467 3.75722018 -8.5 5.4375 C-8.995 5.953125 -9.49 6.46875 -10 7 C-10.33 6.67 -10.66 6.34 -11 6 C-11.33 8.31 -11.66 10.62 -12 13 C-12.33 13 -12.66 13 -13 13 C-13.2978711 10.07093421 -13.50159903 7.85647449 -13 5 C-9.06923744 0.39813164 -5.99319358 -0.9807044 0 0 Z " fill="#1B1212" transform="translate(64,51)"/>
<path d="M0 0 C0.66 0.33 1.32 0.66 2 1 C-1 6 -1 6 -2.625 8.375 C-4.29981783 11.57237949 -4.65008799 14.43089753 -5 18 C-5.66 18 -6.32 18 -7 18 C-7.36308044 12.89670273 -7.58277658 9.12536167 -5.1875 4.5 C-3 2 -3 2 0 0 Z " fill="#1F1F20" transform="translate(57,96)"/>
<path d="M0 0 C5.28 0 10.56 0 16 0 C16 0.99 16 1.98 16 3 C10.72 3 5.44 3 0 3 C0 2.01 0 1.02 0 0 Z " fill="#C6C4C7" transform="translate(116,92)"/>
<path d="M0 0 C0.33 0.99 0.66 1.98 1 3 C-1.89380576 7.17048478 -3.98990293 9.56854369 -9 11 C-9 10.34 -9 9.68 -9 9 C-9.66 8.67 -10.32 8.34 -11 8 C-6.25 5 -6.25 5 -4 5 C-3.566875 4.0409375 -3.566875 4.0409375 -3.125 3.0625 C-2 1 -2 1 0 0 Z " fill="#1C1C1D" transform="translate(145,85)"/>
<path d="M0 0 C0.33 0 0.66 0 1 0 C1.33 4.95 1.66 9.9 2 15 C1.01 15.495 1.01 15.495 0 16 C-2.30905137 11.52621297 -2.66065191 6.94517384 -2 2 C-1.34 1.34 -0.68 0.68 0 0 Z " fill="#0F0F10" transform="translate(45,103)"/>
<path d="M0 0 C3.96 0 7.92 0 12 0 C12 0.99 12 1.98 12 3 C8.04 3 4.08 3 0 3 C0 2.01 0 1.02 0 0 Z " fill="#121710" transform="translate(90,96)"/>
<path d="M0 0 C0.99 0 1.98 0 3 0 C2.125 3.875 2.125 3.875 1 5 C0.76807135 6.51469448 0.58784762 8.03754562 0.4375 9.5625 C0.35371094 10.38878906 0.26992188 11.21507812 0.18359375 12.06640625 C0.12300781 12.70449219 0.06242187 13.34257813 0 14 C-0.33 14 -0.66 14 -1 14 C-1.144375 12.88625 -1.28875 11.7725 -1.4375 10.625 C-1.78372035 7.17857953 -1.78372035 7.17857953 -3 5 C-1.75 2.375 -1.75 2.375 0 0 Z " fill="#2C1E1F" transform="translate(47,49)"/>
<path d="M0 0 C0.99 0 1.98 0 3 0 C2.65978036 3.17538332 1.97533396 4.02276865 -0.4375 6.25 C-3 8 -3 8 -5 8 C-5.33 7.01 -5.66 6.02 -6 5 C-5.195625 4.54625 -4.39125 4.0925 -3.5625 3.625 C-0.91143428 2.25274335 -0.91143428 2.25274335 0 0 Z " fill="#141315" transform="translate(137,83)"/>
<path d="M0 0 C1.22589844 0.01353516 1.22589844 0.01353516 2.4765625 0.02734375 C3.41628906 0.04474609 3.41628906 0.04474609 4.375 0.0625 C4.375 0.3925 4.375 0.7225 4.375 1.0625 C1.735 1.3925 -0.905 1.7225 -3.625 2.0625 C-0.655 2.5575 -0.655 2.5575 2.375 3.0625 C2.375 3.3925 2.375 3.7225 2.375 4.0625 C-0.925 4.0625 -4.225 4.0625 -7.625 4.0625 C-7.295 3.0725 -6.965 2.0825 -6.625 1.0625 C-4.21954362 -0.14022819 -2.67503047 -0.03821472 0 0 Z " fill="#36282A" transform="translate(60.625,42.9375)"/>
<path d="M0 0 C0.80566406 0.00322266 1.61132812 0.00644531 2.44140625 0.00976562 C3.70404297 0.02233398 3.70404297 0.02233398 4.9921875 0.03515625 C5.84167969 0.03966797 6.69117187 0.04417969 7.56640625 0.04882812 C9.66669659 0.06062751 11.7669508 0.07856319 13.8671875 0.09765625 C13.8671875 0.42765625 13.8671875 0.75765625 13.8671875 1.09765625 C5.9471875 1.59265625 5.9471875 1.59265625 -2.1328125 2.09765625 C-2.1328125 2.75765625 -2.1328125 3.41765625 -2.1328125 4.09765625 C-2.7928125 4.09765625 -3.4528125 4.09765625 -4.1328125 4.09765625 C-4.1328125 3.43765625 -4.1328125 2.77765625 -4.1328125 2.09765625 C-4.7928125 1.76765625 -5.4528125 1.43765625 -6.1328125 1.09765625 C-3.8362755 -0.05061225 -2.54968083 -0.0179555 0 0 Z " fill="#1D1D20" transform="translate(61.1328125,88.90234375)"/>
<path d="M0 0 C0.66 0.33 1.32 0.66 2 1 C1.67 2.32 1.34 3.64 1 5 C0.01 5 -0.98 5 -2 5 C-2.33 7.31 -2.66 9.62 -3 12 C-3.33 12 -3.66 12 -4 12 C-4.49230769 4.61538462 -4.49230769 4.61538462 -2 1.5 C-1.34 1.005 -0.68 0.51 0 0 Z " fill="#312222" transform="translate(55,52)"/>
<path d="M0 0 C0.33 0 0.66 0 1 0 C1.66 3.3 2.32 6.6 3 10 C2.01 10.66 1.02 11.32 0 12 C-0.66 10.35 -1.32 8.7 -2 7 C-1.34 7 -0.68 7 0 7 C0 4.69 0 2.38 0 0 Z " fill="#353539" transform="translate(52,107)"/>
<path d="M0 0 C3.3 0 6.6 0 10 0 C9.67 0.99 9.34 1.98 9 3 C5.7 2.67 2.4 2.34 -1 2 C-0.67 1.34 -0.34 0.68 0 0 Z " fill="#0D0808" transform="translate(57,44)"/>
<path d="M0 0 C0 0.33 0 0.66 0 1 C-0.78375 1.0825 -1.5675 1.165 -2.375 1.25 C-5.14749104 1.72806339 -5.14749104 1.72806339 -6.3125 4.0625 C-6.539375 4.701875 -6.76625 5.34125 -7 6 C-8.32 5.34 -9.64 4.68 -11 4 C-7.26280719 0.48264206 -5.13496308 -0.47767098 0 0 Z " fill="#2F2020" transform="translate(134,114)"/>
<path d="M0 0 C1.5 1.3125 1.5 1.3125 3 3 C3 3.99 3 4.98 3 6 C2.34 6 1.68 6 1 6 C1 7.65 1 9.3 1 11 C0.67 11 0.34 11 0 11 C-0.19491452 9.54263913 -0.38069358 8.08405407 -0.5625 6.625 C-0.66691406 5.81289062 -0.77132812 5.00078125 -0.87890625 4.1640625 C-1 2 -1 2 0 0 Z " fill="#2E2E31" transform="translate(139,68)"/>
<path d="M0 0 C0.99 0 1.98 0 3 0 C3 2.31 3 4.62 3 7 C2.01 7 1.02 7 0 7 C0 4.69 0 2.38 0 0 Z " fill="#131113" transform="translate(146,119)"/>
<path d="M0 0 C0.99 0 1.98 0 3 0 C2.37240135 2.92879371 1.41377341 5.36095629 0 8 C-1.125 6.25 -1.125 6.25 -2 4 C-1.125 1.75 -1.125 1.75 0 0 Z " fill="#1B1617" transform="translate(117,113)"/>
<path d="M0 0 C1.231394 3.69418201 0.64432764 6.2056261 0 10 C-0.66 10 -1.32 10 -2 10 C-2.1953125 3.9453125 -2.1953125 3.9453125 -2 2 C-1.34 1.34 -0.68 0.68 0 0 Z " fill="#030303" transform="translate(52,104)"/>
<path d="M0 0 C2.31 0 4.62 0 7 0 C7.33 0.99 7.66 1.98 8 3 C5.03 2.67 2.06 2.34 -1 2 C-0.67 1.34 -0.34 0.68 0 0 Z " fill="#060505" transform="translate(129,115)"/>
<path d="M0 0 C1.2077558 3.62326739 0.54311128 4.64146369 -1 8 C-1.99 7.34 -2.98 6.68 -4 6 C-3.6875 4.125 -3.6875 4.125 -3 2 C-2.01 1.34 -1.02 0.68 0 0 Z " fill="#1B1B1C" transform="translate(48,98)"/>
<path d="M0 0 C0.33 0 0.66 0 1 0 C1.125 2.875 1.125 2.875 1 6 C0.34 6.66 -0.32 7.32 -1 8 C-1.66 8 -2.32 8 -3 8 C-1.125 1.125 -1.125 1.125 0 0 Z " fill="#090909" transform="translate(147,78)"/>
<path d="M0 0 C1.89213369 2.38573379 3.02391783 4.07175348 4 7 C3.34 7.66 2.68 8.32 2 9 C1.34 8.67 0.68 8.34 0 8 C0 5.36 0 2.72 0 0 Z " fill="#3E2729" transform="translate(145,121)"/>
<path d="M0 0 C0.99 0 1.98 0 3 0 C3 1.98 3 3.96 3 6 C1.68 6.33 0.36 6.66 -1 7 C-0.67 4.69 -0.34 2.38 0 0 Z " fill="#0F0F10" transform="translate(85,107)"/>
<path d="M0 0 C0.33 0.66 0.66 1.32 1 2 C-0.3125 4.625 -0.3125 4.625 -2 7 C-2.66 7 -3.32 7 -4 7 C-4 5.68 -4 4.36 -4 3 C-2 1.25 -2 1.25 0 0 Z " fill="#D2CFD3" transform="translate(52,98)"/>
</svg>
